<svg xmlns="http://www.w3.org/2000/svg" viewBox="0 0 512 512" height="40px" width="40px">
    <path d="M0 376.163h512v15.673H0zM0 186.943h16.696v15.673H0zM472.62 277.884l-64.52-64.52c-17.037-17.036-39.688-26.418-63.782-26.418H33.39v15.674H259.71c3.93 37.475 35.707 66.783 74.206 66.783h108.058l19.566 19.566c5.956 5.954 9.236 13.868 9.236 22.284 0 8.415-3.28 16.33-9.237 22.284-5.955 5.956-13.87 9.236-22.284 9.236h-327.95v15.673H439.25c12.602 0 24.452-4.91 33.37-13.826 8.916-8.915 13.825-20.765 13.825-33.367 0-12.602-4.91-24.453-13.826-33.37zm-138.707-24.156c-29.846 0-54.583-22.297-58.428-51.11h68.833c19.907 0 38.623 7.753 52.7 21.83l29.28 29.28h-92.385z"
          fill="#ff9308"/>
    <path d="M170.25 220.338v49.065h71.326v-49.065H170.25zm55.652 33.39h-39.98V236.01h39.98v17.718zM81.207 220.338v49.065h71.326v-49.065H81.207zm55.653 33.39H96.88V236.01h39.98v17.718zM0 220.338v15.673h47.816v17.718H0v15.674h63.49v-49.064zM33.39 342.768h55.652v15.674h-55.65zM0 342.768h16.696v15.674H0zM66.783 309.384h100.174v15.673H66.783zM33.39 309.384h16.697v15.673H33.39zM189.22 153.558h100.175v15.673H189.22zM155.826 153.558h16.695v15.673h-16.694zM133.57 120.163h66.782v15.673H133.57zM100.174 120.163h16.696v15.673h-16.696zM355.725 287.117H371.4v15.673h-15.675zM324.378 287.117h15.673v15.673H324.38zM418.42 287.117h15.672v15.673H418.42zM387.072 287.117h15.673v15.673h-15.673z"
          fill="#ff9308"/>
</svg>