<svg xmlns="http://www.w3.org/2000/svg" version="1.1" width="50px" height="50px" viewBox="0 0 486.208 486.208">
    <path d="M478.996 219.227l-186.04-54 33.977-41.794h20.91c-1.058 4.382.97 9.078 5.154 11.23a9.996 9.996 0 0 0 13.464-4.326l1.198-2.338c3.096-6.024 3.14-12.313.122-17.254-2.84-4.648-7.896-7.314-13.88-7.314h-70.335c-9.332 0-19.438 6.49-24.03 15.432-2.522 4.913-.587 10.94 4.326 13.464 4.912 2.523 10.94.585 13.464-4.327 1.25-2.432 4.773-4.567 6.24-4.567h17.59l-29.163 35.874c-10.458-2.757-20.44-5.074-28.518-6.897-3.374-.762-13.447-2.2-27.428-2.2-22.11 0-55.843 3.573-90.966 20.604-47.54 23.053-81.532 72.51-93.938 92.705l-1.235 2.007c-9.855 16.02-20.044 32.59-26.493 51.212-9.362 27.033.787 49.427 27.15 59.902 10.392 4.127 22.287 6.133 36.366 6.133.886 0 1.77-.008 2.65-.022 25.103-.407 45.408-1.243 63.906-2.63 24.283-1.82 45.492-5.593 64.834-11.53 63.577-19.512 123.852-40.977 196.038-67.012 18.592-6.704 37.46-13.595 55.704-20.258 8.702-3.178 26.347-9.606 26.466-9.646 8.448-2.77 9.69-9.125 9.67-12.71l.005-30.134a9.996 9.996 0 0 0-7.21-9.605zm-12.792 34.916a28873.01 28873.01 0 0 0-22.996 8.394c-18.228 6.655-37.073 13.54-55.63 20.23-71.93 25.94-131.97 47.324-195.12 66.706-17.9 5.495-37.68 8.997-60.462 10.704-9.59.72-19.705 1.285-30.762 1.72 13.622-16.563 17.65-30.61 12.3-42.62-6.312-14.162-24.358-22.08-55.173-24.213-8.125-.562-15.975-.628-22.546-.5l9.587-15.298 12.017 2.114c.012.002 30.817 5.72 56.973.023 17.027-3.708 29.32-15.854 36.742-22.787.555-.518 59.173-54.847 58.674-68.417-.146-3.93-1.743-7.446-4.665-9.895-3.49-2.928-9.56-5.814-26.587-6.41a194.29 194.29 0 0 1 37.497-3.687c12.823 0 21.424 1.35 23.023 1.71 10.567 2.386 24.46 5.632 38.183 9.577l165.853 48.14-189.005-4.362a2.572 2.572 0 0 0-.174-.006c-43.827 0-79.895 50.9-81.41 53.066a2.5 2.5 0 0 0 2.418 3.907l291.27-37.102-.004 9.006z"
          fill="#ff9308"/>
</svg>
